{"title":"Person of Interest S04E04 Brotherhood 720p HDTV X265","uid":11223405,"size":328281547,"categoryP":"video","categoryS":"hd___tv_shows","magnet":"?xt=urn:btih:2599f9745b78bf2e11e866118b40729249128f31&amp;dn=Person+of+Interest+S04E04+Brotherhood+720p+HDTV+X265&amp;tr=udp%3A%2F%2Ftracker.openbittorrent.com%3A80&amp;tr=udp%3A%2F%2Fopen.demonii.com%3A1337&amp;tr=udp%3A%2F%2Ftracker.coppersurfer.tk%3A6969&amp;tr=udp%3A%2F%2Fexodus.desync.com%3A6969","seeders":2,"leechers":0,"uploader":"atm50","files":-1,"time":1413411766,"description":"When a young brother and sister witness a gangland shooting, they take a half million in drug money and go on the run. Reese goes looking for the team's two new Numbers and finds the Brotherhood after them. Meanwhile, Finch turns to Elias for help.\n\nSource: Person of Interest S04E04 REPACK 720p HDTV X264-DIMENSION [eztv]\n\nFormat                         : MPEG-4\nFile size                      : 313 MiB\nDuration                       : 43mn 31s\nOverall bit rate               : 1 005 Kbps\n\nVideo\n\nFormat                         : HEVC [X265]\nBit rate                       : 747 Kbps\nMaximum bit rate               : 10.0 Mbps\nWidth                          : 1 280 pixels\nHeight                         : 720 pixels\nDisplay aspect ratio           : 16:9\nFrame rate                     : 23.976 fps\nStream size                    : 233 MiB (74%)\n\nAudio\n\nFormat                         : AC-3\nBit rate                       : 256 Kbps\nChannel(s)                     : 6 channels (5.1)\nSampling rate                  : 48.0 KHz\nBit depth                      : 16 bits\nCompression mode               : Lossy\nStream size                    : 79.7 MiB (25%)\n\nSubtitles: English (External)","torrent":{"xt":"urn:btih:2599f9745b78bf2e11e866118b40729249128f31","amp;dn":"Person+of+Interest+S04E04+Brotherhood+720p+HDTV+X265","amp;tr":["udp%3A%2F%2Ftracker.openbittorrent.com%3A80","udp%3A%2F%2Fopen.demonii.com%3A1337","udp%3A%2F%2Ftracker.coppersurfer.tk%3A6969","udp%3A%2F%2Fexodus.desync.com%3A6969"],"infoHash":"2599f9745b78bf2e11e866118b40729249128f31","infoHashBuffer":{"type":"Buffer","data":[37,153,249,116,91,120,191,46,17,232,102,17,139,64,114,146,73,18,143,49]},"announce":[],"urlList":[]}}